<?xml version="1.0" encoding="UTF-8"?>
<!DOCTYPE svg PUBLIC "-//W3C//DTD SVG 1.1//EN" "http://www.w3.org/Graphics/SVG/1.1/DTD/svg11.dtd">
<!-- Creator: CorelDRAW (OEM Version) -->
<svg xmlns="http://www.w3.org/2000/svg" xml:space="preserve" width="1362px" height="863px" version="1.1" style="shape-rendering:geometricPrecision; text-rendering:geometricPrecision; image-rendering:optimizeQuality; fill-rule:evenodd; clip-rule:evenodd"
viewBox="0 0 1362.001 862.609"
 xmlns:xlink="http://www.w3.org/1999/xlink"
 xmlns:xodm="http://www.corel.com/coreldraw/odm/2003">
 <defs>
  <style type="text/css">
   <![CDATA[
    .fil0 {fill:black}
    .fil6 {fill:#353535}
    .fil5 {fill:#A4824D}
    .fil4 {fill:#D4D4D4}
    .fil1 {fill:#DFB069}
    .fil2 {fill:#E5E5E5}
    .fil3 {fill:#EAD7C5}
   ]]>
  </style>
 </defs>
 <g id="Layer_x0020_1">
  <metadata id="CorelCorpID_0Corel-Layer"/>
  <g id="_2123296275888">
   <g>
    <path class="fil0" d="M670.03 699.342c0,10.703 1.215,19.122 -0.912,33.573 -9.824,-16.143 -27.744,-35.651 -35.156,-51.189l-19.779 5.409c0,59.321 1.808,112.054 -1.216,171.505 21.079,2.184 25.183,7.315 24.481,-15.029l-0.852 -85.807c-0.044,-7.656 -1.395,-14.719 -1.281,-18.99 0.102,-3.767 1.664,-10.036 1.74,-16.601 3.673,1.659 21.822,26.811 26.295,32.591 13.071,16.887 4.796,70.941 7.595,104.752 28.189,2.016 23.458,-0.505 22.282,-26.136 -0.763,-16.616 -0.279,-34.453 -1.746,-50.864 -2.731,-30.564 4.763,-67.255 1.487,-96.7l-22.938 -1.468 0 14.954z"/>
    <path class="fil0" d="M122.575 684.972l-24.738 -0.584c0.772,25.945 0.432,61.626 2.345,89.735 0.754,11.082 -2.383,78.317 -0.229,85.073l22.421 0.36 0.231 -74.916 32.273 -9.92 0.591 61.298c-0.956,11.735 -1.77,13.77 2.484,23.593l20.747 -0.364c1.518,-5.929 -1.024,-74.142 -1.48,-86.664 -0.582,-16.006 -0.81,-30.463 -0.645,-46.423 0.14,-13.528 2.791,-27.354 3.044,-41.467 -42.43,-1.352 -18.056,-2.155 -24.108,63.476 -9.465,7.37 -19.303,11.87 -33.276,13.134 -6.297,-37.614 1.075,-49.137 0.34,-76.331z"/>
    <path class="fil0" d="M894.026 770.751c0.718,-30.416 -3.36,-21.368 0.53,-60.649l26.783 28.301c-5.543,7.885 -18.489,26.856 -27.313,32.348zm57.819 77.514c-1.166,-5.977 -21.467,-40.317 -26.289,-48.141 -13.018,-21.128 -12.421,-21.676 8.256,-44.507 4.44,-4.902 12.696,-13.27 11.036,-23.896 -0.701,-4.496 -14.712,-16.851 -20.789,-22.696l-34.39 -28.206 -17.615 6.316 0.923 131.911c-1.978,11.076 -3.688,28.309 -1.237,39.908 12.548,0.811 11.823,1.26 24.011,-1.256 -0.753,-22.218 -2.743,-48.761 -1.115,-70.467 5.324,6.148 33.142,64.032 36.316,73.851 4.769,-1.484 8.978,-3.238 12.666,-5.454 8.84,-5.312 4.214,-1.477 8.227,-7.363z"/>
    <path class="fil0" d="M478.366 827.53c-3.246,-15.042 -1.952,-95.723 -0.293,-112.934 6.649,8.799 33.999,48.248 31.976,56.669 -1.985,8.263 -26.407,46.647 -31.683,56.265zm-21.576 30.333l22.813 3.211c11.768,-13.209 18.24,-31.617 27.73,-46.129 34.828,-53.262 33.901,-43.941 -1.017,-93.48l-13.755 -20.411c-4.316,-7.619 -9.074,-12.326 -12.854,-20.093l-23.812 7.418 0.895 169.484z"/>
    <path class="fil0" d="M1004.498 828.583l-19.103 -41.731c-0.525,-1.751 -4.162,-16.801 -4.173,-17.032 -0.426,-8.5 17.141,-49.741 21.745,-59.802l21.711 56.796c0.93,5.346 -16.699,55.871 -20.18,61.769zm-12.207 -143.435c-5.652,15.425 -10.126,29.515 -16.798,44 -5.097,11.062 -16.767,32.503 -16.775,43.359 -0.014,17.822 28.023,58.533 32.643,86.782l20.156 0.267c3.752,-7.236 36.605,-82.818 36.925,-87.143 1.107,-14.958 -29.111,-65.984 -33.582,-89.154l-22.569 1.889z"/>
    <path class="fil0" d="M369.377 786.031c-0.048,-0.162 -3.467,-14.292 -3.471,-14.323 -1.22,-10.143 15.601,-52.284 22.13,-61.396 5.994,16.712 18.189,39.897 21.35,56.585 0.967,5.094 -16.399,53.125 -20.114,61.385l-19.895 -42.251zm26.609 73.525c42.592,-103.516 46.599,-71.493 19.311,-132.636l-18.708 -43.369 -20.435 0.532c-1.872,9.975 -11.385,35.168 -15.969,45.032 -19.289,41.515 -25.352,36.705 -0.24,87.453l17.12 42.93 18.921 0.058z"/>
    <path class="fil0" d="M803.058 773.831c-2.525,-15.43 -2.778,-45.538 -0.297,-61.386 6.951,9.172 19.24,20.021 26.135,30.841 -4.076,7.577 -8.541,10.972 -13.062,16.324 -2.728,3.228 -11.436,12.122 -12.776,14.221zm0.023 85.416c1.627,-13.012 -1.731,-25.112 -2.04,-32.987 -0.075,-1.913 0.717,-13.036 1.309,-16.893 3.95,-25.709 68.913,-52.854 41.811,-81.537 -7.605,-8.048 -11.155,-12.859 -19.301,-19.812 -13.881,-11.848 -20.588,-37.617 -45.273,-18.442l1.956 129.7c0.391,11.418 -3.941,24.903 -1.839,39.75l23.377 0.221z"/>
    <path class="fil0" d="M1185.172 836.835c-7.153,3.276 -19.667,2.791 -28.116,0.471l-1.356 -55.588 30.64 -0.414 1.757 -21.162 -32.555 0.307c-1.295,-15.945 -0.738,-36.203 1.826,-54.719l36.277 0.495 0.262 -20.579 -28.267 -1.095 -31.75 0.752 1.121 130.576c-0.975,14.564 -4.43,29.238 -0.51,43.677 63.305,0 66.704,7.261 62.255,-22.555l-11.584 -0.166z"/>
    <path class="fil0" d="M235.465 760.07c-2.002,-15.298 -1.004,-36.003 1.525,-54.747l36.337 0.119 0.286 -20.139c-9.154,-1.907 -49.436,-0.995 -60.119,0l1.134 130.576c-0.911,14.377 -4.335,29.555 -0.524,43.677 16.105,0 24.959,-0.998 41.285,0.278 22.146,1.731 23.385,0.294 21.275,-22.861 -14.258,-0.051 -25.794,4.191 -40.247,0.327l-0.641 -56.211 30.646 0.062 0.463 -21.593 -31.42 0.512z"/>
    <path class="fil0" d="M27.645 704.529c2.227,24.781 1.185,52.71 0.612,77.819l-2.749 76.292c10.767,1.315 15.974,3.82 24.414,-2.906l-0.602 -151.967 28.436 1.354 -1.284 -20.733c-13.593,-0.548 -27.292,0.356 -40.828,0.959 -10.317,0.459 -22.548,-1.381 -35.644,-1.561l1.251 20.438c10.022,3.66 16.457,-0.319 26.394,0.305z"/>
    <path class="fil0" d="M1311.805 704.529c2.212,24.594 1.284,52.875 0.648,77.819l-2.784 76.292c29.469,3.599 29.594,3.225 22.835,-69.773l0.977 -85.1 28.52 1.348 -1.368 -20.727c-13.594,-0.548 -27.293,0.356 -40.828,0.959 -10.269,0.457 -22.324,-1.373 -35.452,-1.562l1.058 20.439c10.024,3.66 16.458,-0.319 26.394,0.305z"/>
    <path class="fil0" d="M1236.759 832.238c0.154,0.133 1.222,0.936 3.087,3.121 7.636,8.943 8.909,17.087 16.723,26.639 6.767,-4.481 12.966,-9.207 19.531,-12.821 -4.34,-15.46 -46.862,-67.376 -46.644,-79.012 0.096,-5.102 31.525,-54.287 35.567,-59.321 5.768,-7.186 7.679,-10.878 10.772,-20.032 -11.383,-4.384 -11.132,-6.464 -13.137,-9.753 -11.898,4.078 -1.823,-3.239 -10.696,7.159l-16.234 27.547c-5.002,9.46 -4.776,12.138 -10.248,19.025 -24.49,30.823 -23.094,39.05 -9.815,60.949 14.071,23.205 4.266,-3.416 21.094,36.499z"/>
    <path class="fil0" d="M1083.995 844.985c17.165,-15.284 15.673,-7.534 13.639,-35.796l-0.975 -124.806 -23.498 0.31c0,12.572 2.294,10.483 1.76,22.097l0.681 80.441c0.483,45.228 -0.743,44.458 -25.023,53.405l0.112 13.554 11.499 8.419c12.017,-4.1 15.26,-11.795 21.805,-17.624z"/>
    <path class="fil0" d="M553.454 685.303c6.504,56.129 0.12,90.724 2.57,136.117 1.543,28.591 -3.792,21.809 -2.265,38.136 26.895,0.044 25.77,1.981 24.534,-23.676 -0.848,-17.625 0.754,-36.165 -0.237,-53.692 -2.669,-47.216 1.875,-61.598 1.643,-97.637l-26.245 0.752z"/>
   </g>
   <g>
    <path class="fil1" d="M549.947 256.419c5.542,8.506 12.861,22.008 16.561,33.05 2.27,-1.988 21.244,-40.045 37.549,-41.556 4.663,-0.432 1.823,-0.612 4.648,0.795l43.158 -0.77c-10.201,-4.339 -29.322,-1.586 -42.29,-2.112 27.916,-18.591 60.993,4.144 73.844,10.13 22.234,-11.504 37.018,-23.576 68.723,-12.943 29.391,9.858 33.902,26.519 42.378,38.501l6.072 6.697 14.746 -29.054c1.402,-50.454 -6.948,-37.468 21.036,-65.377 10.627,-10.599 13.084,-8.899 17.508,-26.335 2.763,-10.891 6.028,-22.159 8.77,-32.743 5.914,-22.835 12.152,-45.083 18.108,-67.32 4.557,-17.018 16.127,-51.444 16.868,-67.207l-86.332 44.013 -0.022 77.804c-20.513,-8.323 -35.734,-18.539 -60.119,-26.859 -79.712,-27.199 -129.085,-7.967 -199.528,29.005l-0.584 -80.267 -86.668 -43.871c3.26,20.18 12.538,48.203 17.9,68.527 5.976,22.657 12.013,44.958 18.204,67.299 3.196,11.532 5.647,23.598 9.24,34.746 4.045,12.555 10.535,15.836 18.111,23.399 24.208,24.165 23.49,15.354 22.119,62.448z"/>
    <path class="fil2" d="M691.776 355.747c-21.15,2.989 -24.014,-5.115 -24.076,-24.579l30.986 0c-0.037,14.721 0.326,13.8 -6.91,24.579zm-53.905 -31.889c-2.631,18.117 -34.329,196.179 -38.782,198.964l0.947 13.6c9.391,6.138 78.982,42.472 83.114,42.371 6.738,-0.163 69.357,-36.39 83.271,-41.52l0.095 -13.512c-5.873,-9.243 -34.647,-176.946 -38.866,-200.462 -7.173,-5.185 -38.266,-21.778 -46.466,-21.162 -4.218,0.317 -39.339,18.496 -43.313,21.721z"/>
    <path class="fil3" d="M732.429 279.215c-12.689,-16.549 -0.304,-27.789 17.578,-19.531 4.065,14.679 0.217,23.572 -17.578,19.531zm-80.566 -31.277c5.727,3.818 3.016,-0.883 4.807,7.892 6.754,33.11 -34.986,40.963 -47.415,32.494 -6.614,-4.506 -10.419,-31.826 -0.55,-39.616 -2.825,-1.407 0.015,-1.227 -4.648,-0.795 -16.305,1.511 -35.279,39.568 -37.549,41.556 5.348,10.267 22.318,47.526 28.59,53.836l42.773 -19.447c3.974,-3.225 39.095,-21.404 43.313,-21.721 8.2,-0.616 39.293,15.977 46.466,21.162l43.885 20.506 29.055 -55.594 -6.072 -6.697c-8.476,-11.982 -12.987,-28.643 -42.378,-38.501 -31.705,-10.633 -46.489,1.439 -68.723,12.943 -12.851,-5.986 -45.928,-28.721 -73.844,-10.13 12.968,0.526 32.089,-2.227 42.29,2.112z"/>
    <path class="fil2" d="M800.59 288.211l-29.055 55.594c-0.489,11.085 12.84,53.577 16.689,67.861 2.778,10.31 5.793,22.19 8.697,32.932 1.76,6.503 2.889,9.933 4.738,17.001 0.79,3.023 0.978,4.513 2.029,7.704 0.257,0.78 1.066,3.06 1.365,3.788l2.75 5.453c1.106,-13.015 17.278,-39.433 23.942,-52.445 14.308,-27.939 20.883,-32.918 15.801,-51.272 -6.196,-22.376 -24.316,-101.146 -32.21,-115.67l-14.746 29.054z"/>
    <path class="fil2" d="M558.963 473.472l3.383 -7.115c1.141,-3.126 1.367,-4.583 2.226,-7.613l30.526 -115.439c-6.272,-6.31 -23.242,-43.569 -28.59,-53.836 -3.7,-11.042 -11.019,-24.544 -16.561,-33.05 -9.263,39.242 -20.769,78.352 -31.609,117.518 -5.863,21.182 5.588,32.283 15.157,51.304 6.606,13.13 17.459,37.695 25.468,48.231z"/>
    <path class="fil4" d="M595.098 343.305l-30.526 115.439c-0.859,3.03 -1.085,4.487 -2.226,7.613l-3.383 7.115 -3.894 19.006c8.107,7.739 35.801,27.403 44.02,30.344 4.453,-2.785 36.151,-180.847 38.782,-198.964l-42.773 19.447z"/>
    <path class="fil4" d="M766.516 523.761c7.044,-3.503 14.887,-9.602 21.725,-14.388 8.688,-6.082 13.773,-9.572 22.396,-15.378l-2.834 -15.451 -2.75 -5.453c-0.299,-0.728 -1.108,-3.008 -1.365,-3.788 -1.051,-3.191 -1.239,-4.681 -2.029,-7.704 -1.849,-7.068 -2.978,-10.498 -4.738,-17.001 -2.904,-10.742 -5.919,-22.622 -8.697,-32.932 -3.849,-14.284 -17.178,-56.776 -16.689,-67.861l-43.885 -20.506c4.219,23.516 32.993,191.219 38.866,200.462z"/>
    <path class="fil5" d="M651.863 247.938l-43.158 0.77c-9.869,7.79 -6.064,35.11 0.55,39.616 12.429,8.469 54.169,0.616 47.415,-32.494 -1.791,-8.775 0.92,-4.074 -4.807,-7.892z"/>
    <path class="fil6" d="M691.776 355.747c7.236,-10.779 6.873,-9.858 6.91,-24.579l-30.986 0c0.062,19.464 2.926,27.568 24.076,24.579z"/>
    <path class="fil6" d="M732.429 279.215c17.795,4.041 21.643,-4.852 17.578,-19.531 -17.882,-8.258 -30.267,2.982 -17.578,19.531z"/>
   </g>
  </g>
 </g>
</svg>
